<svg version="1.1" class="MouseIcon-content" xmlns="http://www.w3.org/2000/svg" xmlns:xlink="http://www.w3.org/1999/xlink" x="0px" y="0px" width="100%" height="100%" viewBox="0 0 24 24" style="enable-background:new 0 0 24 24;" xml:space="preserve">
      <path d="M13.3,24h-3c-3.6,0-6.5-2.9-6.5-6.5v-11C3.8,2.9,6.7,0,10.3,0h3c3.6,0,6.5,2.9,6.5,6.5v11C19.8,21.1,16.9,24,13.3,24z
         M10.3,1c-3,0-5.5,2.5-5.5,5.5v11c0,3,2.5,5.5,5.5,5.5h3c3,0,5.5-2.5,5.5-5.5v-11c0-3-2.5-5.5-5.5-5.5H10.3z"></path>
      <path class="MouseIcon-wheel" d="M11.8,9c-0.8,0-1.5-0.7-1.5-1.5v-2c0-0.8,0.7-1.5,1.5-1.5s1.5,0.7,1.5,1.5v2C13.3,8.3,12.6,9,11.8,9z M11.8,5
        c-0.3,0-0.5,0.2-0.5,0.5v2c0,0.3,0.2,0.5,0.5,0.5s0.5-0.2,0.5-0.5v-2C12.3,5.2,12,5,11.8,5z"></path>
      </svg>